Coordinates
version=1
nRows=7
nColumns=40
inDegrees=yes

Units are S.I. units (second, meters, Newtons, ...)
Angles are in degrees.

endheader
time	pelvis_tilt	pelvis_list	pelvis_rotation	pelvis_tx	pelvis_ty	pelvis_tz	hip_flexion_r	hip_adduction_r	hip_rotation_r	knee_angle_r	knee_angle_r_beta	ankle_angle_r	subtalar_angle_r	mtp_angle_r	hip_flexion_l	hip_adduction_l	hip_rotation_l	knee_angle_l	knee_angle_l_beta	ankle_angle_l	subtalar_angle_l	mtp_angle_l	lumbar_extension	lumbar_bending	lumbar_rotation	arm_flex_r	arm_add_r	arm_rot_r	elbow_flex_r	pro_sup_r	wrist_flex_r	wrist_dev_r	arm_flex_l	arm_add_l	arm_rot_l	elbow_flex_l	pro_sup_l	wrist_flex_l	wrist_dev_l
     11.48000000	     -2.53529059	     -5.71239923	      3.39894110	      1.07025274	      0.93443811	      0.50527100	     10.59942001	      3.46411171	    -20.13720773	     16.25944646	     16.25944646	     10.08799847	      2.96637435	     -2.95034158	     26.20449935	    -14.53938687	     -1.87480318	     66.10949901	     66.10949901	     12.84796372	    -18.77644253	     13.48456163	     -9.09581755	      8.05421487	      4.01140700	      8.76730630	    -14.70083685	     -5.65768747	     26.53481103	     45.99031184	      0.00000000	      0.00000000	      7.20136460	     -8.62033675	     -1.94132241	     54.54096242	     45.91917385	      0.00000000	      0.00000000
     11.49157143	     -2.59717804	     -5.65239414	      3.65961239	      1.06856103	      0.93478435	      0.50592588	      9.78358175	      3.62402720	    -20.10062593	     15.62147498	     15.62147498	     10.31409149	      2.88748214	     -2.91889571	     27.94903637	    -14.31675430	     -1.70967082	     64.99263428	     64.99263428	     12.75866684	    -18.67378623	     13.34039684	     -9.14076944	      7.90318181	      3.67874495	     11.55233218	    -14.78805972	     -5.60960224	     27.59816239	     45.97366636	      0.00000000	      0.00000000	      5.69920902	     -8.47662246	     -1.50956825	     52.22158860	     45.86079409	      0.00000000	      0.00000000
     11.50314286	     -2.63876885	     -5.57822449	      3.90787833	      1.06693091	      0.93511451	      0.50656997	      8.91709771	      3.77528169	    -20.09427283	     14.92740518	     14.92740518	     10.54349968	      2.95754881	     -2.95686563	     29.47270573	    -14.05971705	     -1.61089938	     63.57878277	     63.57878277	     12.49802518	    -18.56552501	     13.16575662	     -9.19784570	      7.76862075	      3.37955453	     14.32874320	    -14.84230849	     -5.48428209	     28.55260058	     45.95449195	      0.00000000	      0.00000000	      4.49552713	     -8.27275819	     -1.01325096	     49.23786587	     45.79249564	      0.00000000	      0.00000000
     11.51471429	     -2.68952924	     -5.53330613	      4.12061044	      1.06529110	      0.93524976	      0.50714863	      8.09442102	      3.94770113	    -20.09553747	     14.26769255	     14.26769255	     10.64547700	      2.97529288	     -3.35131239	     30.83218841	    -13.84510819	     -1.60618600	     61.88632484	     61.88632484	     11.97702719	    -18.48329373	     12.37585947	     -9.17764491	      7.69326537	      3.97739858	     16.85102000	    -15.36125112	     -4.86425933	     28.45754769	     45.95714444	      0.00000000	      0.00000000	      4.95483688	     -7.48841057	     -0.24835887	     43.05099764	     45.72827301	      0.00000000	      0.00000000
     11.52628571	     -2.72886354	     -5.48837238	      4.34135060	      1.06373879	      0.93523922	      0.50766234	      7.21300619	      4.14543951	    -20.05702525	     13.51521856	     13.51521856	     10.81155428	      2.98414567	     -3.61569383	     32.05233889	    -13.56737183	     -1.55787402	     59.97543570	     59.97543570	     11.58694269	    -18.41040526	     12.19012460	     -9.22248091	      7.60021964	      4.04346870	     19.28878900	    -15.63545950	     -4.62296964	     29.57975842	     45.93022567	      0.00000000	      0.00000000	      4.35517823	     -7.10027411	      0.26257600	     39.21366284	     45.68732268	      0.00000000	      0.00000000
     11.53785714	     -2.75316245	     -5.44895383	      4.55950364	      1.06223517	      0.93508077	      0.50805098	      6.31623752	      4.34573645	    -20.03085303	     12.76836530	     12.76836530	     11.03463270	      3.03508257	     -3.66971220	     33.11601803	    -13.24357204	     -1.48403256	     57.81416886	     57.81416886	     11.32306025	    -18.32328818	     12.40186285	     -9.35888051	      7.50362344	      3.82786877	     21.78210123	    -15.70227268	     -4.60250056	     30.90194405	     45.89896648	      0.00000000	      0.00000000	      3.10544148	     -6.96601133	      0.58165159	     37.00884769	     45.63652184	      0.00000000	      0.00000000
     11.54942857	     -2.80361655	     -5.45481600	      4.75284800	      1.06076166	      0.93466191	      0.50838886	      5.41400326	      4.60628486	    -19.99398461	     11.93443887	     11.93443887	     11.23391720	      3.11321184	     -3.83686738	     34.09067602	    -12.95417952	     -1.40470656	     55.42074553	     55.42074553	     11.03678384	    -18.18191532	     12.55613113	     -9.42465433	      7.45373981	      3.71404014	     24.21274785	    -15.81320736	     -4.48436465	     32.19859080	     45.86187887	      0.00000000	      0.00000000	      2.14798905	     -6.75661802	      0.95173966	     34.12896656	     45.58245645	      0.00000000	      0.00000000
